<svg width="71" height="71" viewBox="0 0 71 71" fill="none" xmlns="http://www.w3.org/2000/svg">
<path d="M51.2313 39.2635C53.8553 39.2635 56.1645 37.8291 57.354 35.6599L69.8794 12.9533C71.1739 10.6442 69.4945 7.77523 66.8355 7.77523H15.0547L11.7659 0.777832H0.325195V7.77523H7.3226L19.9179 34.3304L15.1947 42.8672C12.6406 47.5555 15.9994 53.2583 21.3174 53.2583H63.3018V46.2609H21.3174L25.166 39.2635H51.2313ZM18.3785 14.7726H60.8877L51.2313 32.2661H26.6704L18.3785 14.7726ZM21.3174 56.757C17.4688 56.757 14.355 59.9059 14.355 63.7544C14.355 67.603 17.4688 70.7518 21.3174 70.7518C25.166 70.7518 28.3148 67.603 28.3148 63.7544C28.3148 59.9059 25.166 56.757 21.3174 56.757ZM56.3044 56.757C52.4558 56.757 49.342 59.9059 49.342 63.7544C49.342 67.603 52.4558 70.7518 56.3044 70.7518C60.153 70.7518 63.3018 67.603 63.3018 63.7544C63.3018 59.9059 60.153 56.757 56.3044 56.757Z" fill="white"/>
</svg>
